<svg width="88" height="29" viewBox="0 0 88 29" fill="none" xmlns="http://www.w3.org/2000/svg">
<path d="M1.70513 23V5.71237H8.18799C9.51608 5.71237 10.6303 5.95998 11.5307 6.4552C12.4367 6.95042 13.1205 7.63134 13.5819 8.49797C14.049 9.35898 14.2826 10.3382 14.2826 11.4355C14.2826 12.5441 14.049 13.5289 13.5819 14.3899C13.1149 15.251 12.4255 15.9291 11.5138 16.4243C10.6022 16.9139 9.4795 17.1587 8.14578 17.1587H3.8492V14.5841H7.72372C8.50031 14.5841 9.13622 14.449 9.63144 14.1789C10.1267 13.9088 10.4924 13.5374 10.7288 13.0647C10.9708 12.592 11.0918 12.0489 11.0918 11.4355C11.0918 10.8221 10.9708 10.2819 10.7288 9.8148C10.4924 9.34772 10.1238 8.98475 9.623 8.72589C9.12778 8.46139 8.48906 8.32915 7.70684 8.32915H4.83682V23H1.70513ZM22.3376 23.2532C21.0714 23.2532 19.9741 22.9747 19.0455 22.4176C18.117 21.8604 17.3967 21.081 16.8846 20.0793C16.3781 19.0776 16.1249 17.9071 16.1249 16.5678C16.1249 15.2284 16.3781 14.0551 16.8846 13.0478C17.3967 12.0405 18.117 11.2583 19.0455 10.7011C19.9741 10.144 21.0714 9.86545 22.3376 9.86545C23.6038 9.86545 24.7011 10.144 25.6297 10.7011C26.5582 11.2583 27.2757 12.0405 27.7822 13.0478C28.2943 14.0551 28.5503 15.2284 28.5503 16.5678C28.5503 17.9071 28.2943 19.0776 27.7822 20.0793C27.2757 21.081 26.5582 21.8604 25.6297 22.4176C24.7011 22.9747 23.6038 23.2532 22.3376 23.2532ZM22.3545 20.8053C23.041 20.8053 23.615 20.6168 24.0765 20.2397C24.5379 19.8571 24.8812 19.3449 25.1063 18.7034C25.337 18.0619 25.4524 17.3472 25.4524 16.5593C25.4524 15.7659 25.337 15.0484 25.1063 14.4068C24.8812 13.7597 24.5379 13.2448 24.0765 12.8621C23.615 12.4794 23.041 12.2881 22.3545 12.2881C21.651 12.2881 21.0658 12.4794 20.5987 12.8621C20.1372 13.2448 19.7912 13.7597 19.5604 14.4068C19.3353 15.0484 19.2228 15.7659 19.2228 16.5593C19.2228 17.3472 19.3353 18.0619 19.5604 18.7034C19.7912 19.3449 20.1372 19.8571 20.5987 20.2397C21.0658 20.6168 21.651 20.8053 22.3545 20.8053ZM31.1439 23V10.0343H34.1068V12.1952H34.2418C34.4782 11.4468 34.8834 10.87 35.4574 10.4648C36.037 10.054 36.6982 9.84857 37.4411 9.84857C37.6099 9.84857 37.7984 9.85701 38.0066 9.87389C38.2205 9.88515 38.3977 9.90484 38.5384 9.93298V12.7439C38.409 12.6989 38.2036 12.6595 37.9222 12.6257C37.6465 12.5863 37.3792 12.5666 37.1203 12.5666C36.5632 12.5666 36.0623 12.6876 35.6178 12.9296C35.1788 13.166 34.8327 13.4952 34.5795 13.9172C34.3262 14.3393 34.1996 14.8261 34.1996 15.3776V23H31.1439ZM56.151 14.3562C56.151 16.2189 55.8021 17.8143 55.1043 19.1424C54.4121 20.4648 53.4667 21.4778 52.2681 22.1812C51.075 22.8846 49.7216 23.2364 48.2078 23.2364C46.6941 23.2364 45.3378 22.8846 44.1392 22.1812C42.9461 21.4721 42.0007 20.4564 41.3029 19.1339C40.6107 17.8058 40.2647 16.2133 40.2647 14.3562C40.2647 12.4935 40.6107 10.9009 41.3029 9.57845C42.0007 8.25036 42.9461 7.2346 44.1392 6.53117C45.3378 5.82773 46.6941 5.47601 48.2078 5.47601C49.7216 5.47601 51.075 5.82773 52.2681 6.53117C53.4667 7.2346 54.4121 8.25036 55.1043 9.57845C55.8021 10.9009 56.151 12.4935 56.151 14.3562ZM53.0025 14.3562C53.0025 13.045 52.7971 11.9392 52.3863 11.0388C51.9811 10.1328 51.4183 9.44902 50.698 8.98757C49.9777 8.52048 49.1476 8.28694 48.2078 8.28694C47.2681 8.28694 46.438 8.52048 45.7177 8.98757C44.9974 9.44902 44.4318 10.1328 44.021 11.0388C43.6158 11.9392 43.4132 13.045 43.4132 14.3562C43.4132 15.6674 43.6158 16.776 44.021 17.682C44.4318 18.5824 44.9974 19.2662 45.7177 19.7332C46.438 20.1947 47.2681 20.4254 48.2078 20.4254C49.1476 20.4254 49.9777 20.1947 50.698 19.7332C51.4183 19.2662 51.9811 18.5824 52.3863 17.682C52.7971 16.776 53.0025 15.6674 53.0025 14.3562ZM86.3516 14.3562C86.3516 16.2189 86.0027 17.8143 85.3049 19.1424C84.6127 20.4648 83.6673 21.4778 82.4687 22.1812C81.2756 22.8846 79.9222 23.2364 78.4084 23.2364C76.8946 23.2364 75.5384 22.8846 74.3398 22.1812C73.1467 21.4721 72.2013 20.4564 71.5035 19.1339C70.8113 17.8058 70.4652 16.2133 70.4652 14.3562C70.4652 12.4935 70.8113 10.9009 71.5035 9.57845C72.2013 8.25036 73.1467 7.2346 74.3398 6.53117C75.5384 5.82773 76.8946 5.47601 78.4084 5.47601C79.9222 5.47601 81.2756 5.82773 82.4687 6.53117C83.6673 7.2346 84.6127 8.25036 85.3049 9.57845C86.0027 10.9009 86.3516 12.4935 86.3516 14.3562ZM83.2031 14.3562C83.2031 13.045 82.9977 11.9392 82.5868 11.0388C82.1817 10.1328 81.6189 9.44902 80.8986 8.98757C80.1783 8.52048 79.3482 8.28694 78.4084 8.28694C77.4686 8.28694 76.6386 8.52048 75.9183 8.98757C75.198 9.44902 74.6324 10.1328 74.2216 11.0388C73.8164 11.9392 73.6138 13.045 73.6138 14.3562C73.6138 15.6674 73.8164 16.776 74.2216 17.682C74.6324 18.5824 75.198 19.2662 75.9183 19.7332C76.6386 20.1947 77.4686 20.4254 78.4084 20.4254C79.3482 20.4254 80.1783 20.1947 80.8986 19.7332C81.6189 19.2662 82.1817 18.5824 82.5868 17.682C82.9977 16.776 83.2031 15.6674 83.2031 14.3562Z" fill="black"/>
<path d="M65.2584 21.825C64.5588 24.0397 61.4248 24.0397 60.7252 21.825L57.9991 13.1956C57.515 11.6634 58.6589 10.1025 60.2657 10.1025H65.7179C67.3247 10.1025 68.4686 11.6634 67.9846 13.1956L65.2584 21.825Z" fill="#FFBB8A"/>
</svg>
